<svg width="18" height="18" fill="none" xmlns="http://www.w3.org/2000/svg"><path fill-rule="evenodd" clip-rule="evenodd" d="M5.438 7.5a3.563 3.563 0 1 1 7.125 0 3.563 3.563 0 0 1-7.126 0ZM9 5.062a2.438 2.438 0 1 0 0 4.876 2.438 2.438 0 0 0 0-4.876Z" fill="#fff"/><path fill-rule="evenodd" clip-rule="evenodd" d="M2.643 6.643A6.216 6.216 0 0 1 8.838.938h.324a6.216 6.216 0 0 1 6.195 5.705 6.707 6.707 0 0 1-1.492 4.796l-3.595 4.397a1.64 1.64 0 0 1-2.54 0l-3.595-4.397a6.707 6.707 0 0 1-1.492-4.796Zm6.195-4.58a5.09 5.09 0 0 0-5.074 4.672 5.582 5.582 0 0 0 1.242 3.992l3.595 4.397a.515.515 0 0 0 .798 0l3.595-4.397a5.582 5.582 0 0 0 1.242-3.992 5.09 5.09 0 0 0-5.074-4.673h-.324Z" fill="#fff"/></svg>