<svg width="18" height="18" fill="none" xmlns="http://www.w3.org/2000/svg"><path fill-rule="evenodd" clip-rule="evenodd" d="M6.188 6.75a2.813 2.813 0 1 1 5.625 0 2.813 2.813 0 0 1-5.626 0ZM9 5.062a1.688 1.688 0 1 0 0 3.376 1.688 1.688 0 0 0 0-3.376Z" fill="#fff"/><path fill-rule="evenodd" clip-rule="evenodd" d="M4.092 6.095A4.802 4.802 0 0 1 8.88 1.688h.242c2.5 0 4.581 1.917 4.787 4.407a5.171 5.171 0 0 1-1.15 3.699L10.06 13.09a1.37 1.37 0 0 1-2.122 0L5.243 9.794a5.171 5.171 0 0 1-1.15-3.699ZM8.88 2.813a3.677 3.677 0 0 0-3.665 3.375 4.046 4.046 0 0 0 .9 2.893L8.81 12.38c.098.12.282.12.38 0l2.696-3.298a4.046 4.046 0 0 0 .9-2.893 3.677 3.677 0 0 0-3.665-3.375H8.88Z" fill="#fff"/><path d="M5.753 12.252a.563.563 0 0 0-1.006-.504l-1.5 3a.563.563 0 0 0 .503.815h10.5a.562.562 0 0 0 .503-.815l-1.5-3a.563.563 0 0 0-1.006.504l1.093 2.185H4.66l1.093-2.185Z" fill="#fff"/></svg>